<?xml version="1.0" standalone="no"?>
<!DOCTYPE svg PUBLIC "-//W3C//DTD SVG 20010904//EN"
 "http://www.w3.org/TR/2001/REC-SVG-20010904/DTD/svg10.dtd">
<svg version="1.0" xmlns="http://www.w3.org/2000/svg"
 width="699.000000pt" height="699.000000pt" viewBox="0 0 699.000000 699.000000"
 preserveAspectRatio="xMidYMid meet">
<metadata>
Created by potrace 1.14, written by Peter Selinger 2001-2017
</metadata>
<g transform="translate(0.000000,699.000000) scale(0.100000,-0.100000)"
fill="#000000" stroke="none">
<path d="M3280 6983 c-369 -32 -635 -86 -931 -189 -1023 -356 -1812 -1153
-2171 -2194 -27 -81 -92 -319 -102 -377 -3 -16 -12 -68 -21 -118 -8 -49 -18
-112 -21 -140 -3 -27 -7 -61 -10 -75 -19 -115 -25 -481 -11 -665 27 -369 135
-806 274 -1115 235 -522 530 -919 959 -1287 374 -322 864 -576 1364 -707 111
-30 321 -71 401 -80 31 -4 67 -9 80 -11 130 -26 624 -25 824 1 532 70 962 223
1450 517 81 48 337 234 355 257 3 4 37 34 75 67 397 342 723 798 934 1306 79
190 175 522 205 707 14 82 36 262 44 355 9 102 8 492 -2 555 -2 19 -7 62 -11
95 -39 409 -174 853 -380 1243 -87 165 -294 477 -369 559 -6 6 -29 33 -51 59
-231 280 -544 546 -880 749 -329 198 -759 362 -1130 431 -49 9 -97 17 -105 19
-22 4 -96 13 -165 20 -33 4 -71 9 -85 11 -29 6 -469 11 -520 7z"/>
</g>
</svg>
